<?xml version="1.0" encoding="UTF-8" standalone="no"?>
<!DOCTYPE svg PUBLIC "-//W3C//DTD SVG 1.1//EN" "http://www.w3.org/Graphics/SVG/1.1/DTD/svg11.dtd">
<svg xmlns="http://www.w3.org/2000/svg" version="1.1" viewBox="0.00 0.00 500.00 500.00">
<g stroke-width="2.00" fill="none" stroke-linecap="butt">
<path stroke="#6c411a" vector-effect="non-scaling-stroke" d="
  M 253.80 104.28
  L 242.05 91.02"
/>
<path stroke="#6c411a" vector-effect="non-scaling-stroke" d="
  M 278.92 89.95
  C 278.66 92.47 280.72 93.82 282.44 95.17"
/>
<path stroke="#6c411a" vector-effect="non-scaling-stroke" d="
  M 293.74 89.46
  L 298.50 92.99"
/>
<path stroke="#6c411a" vector-effect="non-scaling-stroke" d="
  M 320.89 99.22
  L 323.34 104.67"
/>
<path stroke="#6c411a" vector-effect="non-scaling-stroke" d="
  M 326.57 112.18
  Q 327.44 115.40 329.13 117.92"
/>
<path stroke="#6c411a" vector-effect="non-scaling-stroke" d="
  M 332.01 124.54
  C 332.66 126.58 333.20 130.09 335.72 130.24"
/>
<path stroke="#6c411a" vector-effect="non-scaling-stroke" d="
  M 341.71 135.57
  Q 341.49 138.31 343.51 140.76"
/>
<path stroke="#6c411a" vector-effect="non-scaling-stroke" d="
  M 346.92 146.73
  L 346.44 152.59"
/>
<path stroke="#6c411a" vector-effect="non-scaling-stroke" d="
  M 333.85 158.45
  Q 331.96 161.40 331.92 164.41"
/>
<path stroke="#6c411a" vector-effect="non-scaling-stroke" d="
  M 253.02 249.70
  L 247.49 131.84"
/>
<path stroke="#6c411a" vector-effect="non-scaling-stroke" d="
  M 235.33 83.30
  Q 234.36 85.65 231.14 86.96"
/>
<path stroke="#6c411a" vector-effect="non-scaling-stroke" d="
  M 232.30 121.55
  Q 232.36 121.72 232.37 121.87
  Q 232.40 122.15 232.61 122.33
  Q 238.53 127.49 240.18 134.51"
/>
<path stroke="#6c411a" vector-effect="non-scaling-stroke" d="
  M 180.95 103.62
  Q 182.66 102.24 183.86 100.47
  Q 184.57 99.42 186.28 97.59
  Q 187.84 95.92 188.33 93.45"
/>
<path stroke="#6c411a" vector-effect="non-scaling-stroke" d="
  M 220.53 103.78
  Q 219.21 106.81 215.14 107.33"
/>
<path stroke="#6c411a" vector-effect="non-scaling-stroke" d="
  M 178.53 127.23
  Q 173.36 127.62 169.69 125.52"
/>
<path stroke="#6c411a" vector-effect="non-scaling-stroke" d="
  M 230.17 137.33
  Q 231.75 139.70 234.37 140.89
  A 0.75 0.74 -75.1 0 1 234.80 141.64
  L 233.51 155.13"
/>
<path stroke="#6c411a" vector-effect="non-scaling-stroke" d="
  M 163.55 124.49
  L 161.75 130.06"
/>
<path stroke="#6c411a" vector-effect="non-scaling-stroke" d="
  M 225.76 156.39
  L 239.94 175.56"
/>
<path stroke="#6c411a" vector-effect="non-scaling-stroke" d="
  M 228.77 249.69
  Q 232.12 217.21 232.91 184.75
  Q 233.08 177.63 227.71 174.64"
/>
<path stroke="#6c411a" vector-effect="non-scaling-stroke" d="
  M 156.44 148.31
  Q 156.80 145.67 156.01 143.15"
/>
<path stroke="#6c411a" vector-effect="non-scaling-stroke" d="
  M 162.77 136.19
  L 162.63 141.18"
/>
<path stroke="#6c411a" vector-effect="non-scaling-stroke" d="
  M 396.67 152.46
  C 394.48 150.47 391.49 153.64 389.75 154.92
  A 1.53 1.53 0.0 0 1 387.69 154.71
  L 386.07 152.90
  Q 385.01 151.71 385.11 153.31
  Q 385.18 154.50 386.14 155.60
  A 0.47 0.46 71.7 0 1 385.76 156.37
  L 385.18 156.32"
/>
<path stroke="#6c411a" vector-effect="non-scaling-stroke" d="
  M 394.39 178.13
  L 394.41 179.50
  A 0.58 0.57 -20.9 0 0 395.36 179.92
  L 400.85 175.22"
/>
<path stroke="#6c411a" vector-effect="non-scaling-stroke" d="
  M 403.37 173.65
  L 405.99 177.30"
/>
<path stroke="#6c411a" vector-effect="non-scaling-stroke" d="
  M 399.46 226.82
  L 399.29 227.05
  Q 399.16 227.23 399.16 227.45
  Q 399.07 232.51 399.88 237.07
  A 1.57 1.57 0.0 0 0 402.53 237.92
  C 404.09 236.38 404.78 234.20 407.32 234.11
  Q 411.71 233.95 416.36 233.93
  A 2.10 2.10 0.0 0 0 418.30 232.64
  C 421.34 225.50 421.05 217.59 419.76 210.15
  Q 419.39 208.06 420.51 209.86
  C 423.44 214.62 426.15 218.98 428.49 224.21
  Q 431.46 230.82 434.12 237.24
  Q 434.31 237.70 434.81 237.72
  L 439.00 237.87"
/>
<path stroke="#8e7551" vector-effect="non-scaling-stroke" d="
  M 284.39 239.49
  L 284.60 237.13
  Q 284.68 236.20 285.61 236.16
  L 305.88 235.36"
/>
<path stroke="#6c411a" vector-effect="non-scaling-stroke" d="
  M 305.88 235.36
  L 305.25 217.18
  A 0.37 0.37 0.0 0 1 305.95 216.99
  L 311.87 227.56
  Q 311.90 227.62 311.95 227.57
  Q 312.03 227.47 312.11 227.37"
/>
<path stroke="#6c411a" vector-effect="non-scaling-stroke" d="
  M 313.12 228.12
  L 316.26 230.23"
/>
<path stroke="#8e7551" vector-effect="non-scaling-stroke" d="
  M 316.26 230.23
  Q 316.96 230.90 316.95 232.01
  Q 316.93 236.78 316.81 241.28
  Q 316.79 241.92 317.43 241.93
  L 321.30 241.96
  Q 321.95 241.97 321.95 241.32
  Q 321.96 238.21 321.95 235.18
  C 321.93 231.80 319.18 230.89 316.70 229.74"
/>
<path stroke="#6c411a" vector-effect="non-scaling-stroke" d="
  M 316.70 229.74
  Q 316.18 229.33 316.04 228.65
  Q 315.94 228.15 315.43 228.15
  L 314.46 228.15"
/>
<path stroke="#8e7551" vector-effect="non-scaling-stroke" d="
  M 319.12 228.12
  L 356.44 227.65
  Q 356.70 227.64 356.93 227.75
  Q 357.10 227.83 357.28 227.83
  Q 371.61 227.96 386.96 227.82
  A 0.15 0.15 0.0 0 0 387.06 227.56
  Q 387.01 227.50 386.89 227.38
  Q 386.87 227.36 386.85 227.36
  C 383.65 227.10 380.60 226.80 377.41 226.83
  Q 348.52 227.17 318.59 226.28
  Q 318.12 226.26 317.83 225.90
  L 317.21 225.14"
/>
<path stroke="#8e7551" vector-effect="non-scaling-stroke" d="
  M 319.71 222.63
  L 326.45 221.82"
/>
<path stroke="#6c411a" vector-effect="non-scaling-stroke" d="
  M 326.45 221.82
  L 345.19 221.98
  A 1.94 1.93 17.0 0 0 346.82 221.12
  C 351.21 214.45 352.48 207.54 353.85 199.84
  Q 353.95 199.26 354.40 198.85
  A 0.16 0.16 0.0 0 1 354.66 198.90
  L 365.35 221.03
  Q 365.93 222.23 367.26 222.16
  Q 376.12 221.65 384.73 221.95
  Q 385.30 221.97 385.31 221.40
  Q 385.36 205.11 385.33 190.25
  Q 385.33 187.29 384.77 183.94
  Q 384.27 180.97 383.74 177.83"
/>
<path stroke="#c28e58" vector-effect="non-scaling-stroke" d="
  M 316.70 229.74
  Q 316.12 229.83 316.26 230.23"
/>
<path stroke="#c28e58" vector-effect="non-scaling-stroke" d="
  M 400.02 226.40
  Q 400.75 226.45 401.09 226.06
  Q 401.50 225.59 401.52 225.57
  Q 407.43 220.88 412.23 215.42
  Q 415.36 211.87 417.50 207.22
  A 1.11 1.10 46.0 0 0 417.51 206.31
  Q 417.12 205.39 416.20 205.35"
/>
<path stroke="#6c411a" vector-effect="non-scaling-stroke" d="
  M 385.75 170.03
  Q 386.41 172.95 385.51 174.38"
/>
<path stroke="#c28e58" vector-effect="non-scaling-stroke" d="
  M 326.45 221.82
  Q 334.56 214.37 340.43 205.70
  C 342.79 202.22 344.48 198.19 346.41 194.45
  Q 348.37 190.66 349.81 186.15
  Q 350.14 185.13 349.59 184.43
  Q 349.05 183.74 347.85 183.47"
/>
<path stroke="#6c411a" vector-effect="non-scaling-stroke" d="
  M 393.80 174.11
  Q 392.99 172.36 393.33 169.72"
/>
<path stroke="#c28e58" vector-effect="non-scaling-stroke" d="
  M 305.88 235.36
  L 285.53 234.43
  Q 284.64 234.39 285.27 233.76
  Q 293.15 225.94 299.82 216.54
  Q 302.90 212.21 302.61 208.34"
/>
<path stroke="#6c411a" vector-effect="non-scaling-stroke" d="
  M 105.35 186.50
  Q 103.34 188.32 103.29 189.74
  Q 102.90 203.24 103.01 216.69
  Q 103.03 219.35 101.60 217.11
  Q 99.79 214.27 98.79 210.44
  Q 98.30 208.57 97.93 210.47
  Q 96.40 218.59 92.70 227.24
  C 89.70 234.27 83.11 245.28 74.79 246.05
  Q 70.49 246.44 65.79 248.09
  A 1.51 1.31 -12.1 0 0 64.76 249.45
  Q 64.77 249.67 65.96 249.70"
/>
<path stroke="#b7793c" vector-effect="non-scaling-stroke" d="
  M 61.73 249.66
  Q 62.56 247.00 65.31 245.08
  Q 68.90 242.55 72.45 240.35
  C 79.73 235.84 84.21 231.26 88.82 223.32
  Q 93.40 215.43 94.93 208.96"
/>
<path stroke="#d9ad72" vector-effect="non-scaling-stroke" d="
  M 54.92 249.75
  Q 57.22 243.03 59.91 240.67
  Q 63.61 237.43 67.27 233.51"
/>
<path stroke="#6c411a" vector-effect="non-scaling-stroke" d="
  M 110.30 208.70
  Q 110.19 208.81 110.10 208.92
  Q 110.02 209.02 110.04 209.16
  Q 110.46 212.17 110.36 215.47
  Q 110.34 216.02 110.82 216.30
  Q 112.24 217.11 113.50 216.87
  Q 114.67 216.66 114.81 217.54"
/>
<path stroke="#8e7551" vector-effect="non-scaling-stroke" d="
  M 114.81 217.54
  Q 111.02 222.40 108.33 224.35
  Q 104.54 227.09 102.93 229.04
  Q 102.79 229.21 102.77 228.99
  Q 102.74 228.71 102.54 228.79
  Q 101.55 229.16 101.40 229.87"
/>
<path stroke="#8e7551" vector-effect="non-scaling-stroke" d="
  M 98.48 231.88
  L 96.33 234.02"
/>
<path stroke="#6c411a" vector-effect="non-scaling-stroke" d="
  M 93.86 238.05
  L 90.81 244.44
  A 0.29 0.28 13.7 0 0 91.06 244.84
  C 102.42 245.32 113.53 241.92 120.08 232.35
  Q 125.67 224.17 128.55 215.25
  Q 131.07 207.46 134.43 200.55
  Q 135.74 197.86 135.74 200.86
  Q 135.75 209.27 137.64 216.66
  Q 140.20 226.72 146.33 236.21
  C 150.03 241.93 155.98 245.33 162.80 245.34
  Q 166.56 245.35 170.12 245.80
  Q 171.34 245.96 170.34 245.24
  C 165.05 241.47 160.14 237.74 157.17 231.75
  Q 154.30 225.97 151.49 218.51
  Q 149.03 211.98 151.02 202.15"
/>
<path stroke="#6c411a" vector-effect="non-scaling-stroke" d="
  M 161.32 219.88
  Q 160.95 219.84 160.79 219.98
  A 0.31 0.30 -36.0 0 0 160.73 220.31
  Q 166.13 231.72 177.27 237.52
  C 182.05 240.01 186.99 238.69 191.79 240.52
  Q 194.92 241.72 196.09 243.42
  Q 198.15 246.43 200.84 249.58"
/>
<path stroke="#c28e58" vector-effect="non-scaling-stroke" d="
  M 131.94 195.77
  C 128.04 201.45 125.40 207.38 122.17 214.70
  Q 121.04 217.26 116.66 223.27
  Q 113.08 228.18 109.80 230.71
  Q 103.93 235.24 96.22 236.86"
/>
<path stroke="#c28e58" vector-effect="non-scaling-stroke" d="
  M 114.81 217.54
  L 119.62 208.94"
/>
<path stroke="#6c411a" vector-effect="non-scaling-stroke" d="
  M 114.24 185.89
  Q 111.76 186.60 109.79 184.86"
/>
<path stroke="#6c411a" vector-effect="non-scaling-stroke" d="
  M 119.24 189.82
  Q 118.52 186.24 120.02 185.96"
/>
<path stroke="#6c411a" vector-effect="non-scaling-stroke" d="
  M 380.07 241.95
  L 383.47 241.85
  A 0.64 0.64 0.0 0 0 384.09 241.19
  L 383.94 236.11
  A 4.20 2.16 88.3 0 0 381.65 231.98
  L 381.29 231.99
  A 4.20 2.16 88.3 0 0 379.26 236.25
  L 379.41 241.33
  A 0.64 0.64 0.0 0 0 380.07 241.95"
/>
<path stroke="#6c411a" vector-effect="non-scaling-stroke" d="
  M 369.84 242.05
  L 372.58 242.01
  A 0.96 0.96 0.0 0 0 373.53 241.03
  L 373.43 235.40
  A 3.07 2.08 89.0 0 0 371.30 232.37
  L 370.80 232.38
  A 3.07 2.08 89.0 0 0 368.77 235.48
  L 368.87 241.11
  A 0.96 0.96 0.0 0 0 369.84 242.05"
/>
<path stroke="#6c411a" vector-effect="non-scaling-stroke" d="
  M 331.73 241.46
  Q 334.50 242.20 337.18 241.78
  Q 337.85 241.68 337.87 241.00
  L 338.02 235.02
  Q 338.03 234.41 337.43 234.26
  Q 334.55 233.55 331.75 234.42"
/>
<path stroke="#6c411a" vector-effect="non-scaling-stroke" d="
  M 290.5173 241.8653
  A 0.69 0.69 0.0 0 0 289.8178 241.1850
  L 289.0778 241.1953
  A 0.69 0.69 0.0 0 0 288.3975 241.8949
  L 288.4227 243.6947
  A 0.69 0.69 0.0 0 0 289.1222 244.3750
  L 289.8622 244.3647
  A 0.69 0.69 0.0 0 0 290.5425 243.6651
  L 290.5173 241.8653"
/>
<path stroke="#835f35" vector-effect="non-scaling-stroke" d="
  M 292.5561 244.5920
  A 1.68 0.67 95.6 0 0 293.3868 242.9854
  A 1.68 0.67 95.6 0 0 292.8839 241.2480
  A 1.68 0.67 95.6 0 0 292.0532 242.8546
  A 1.68 0.67 95.6 0 0 292.5561 244.5920"
/>
<path stroke="#6c411a" vector-effect="non-scaling-stroke" d="
  M 295.9285 244.8237
  A 1.81 0.58 94.8 0 0 296.6580 243.0685
  A 1.81 0.58 94.8 0 0 296.2315 241.2163
  A 1.81 0.58 94.8 0 0 295.5020 242.9715
  A 1.81 0.58 94.8 0 0 295.9285 244.8237"
/>
<path stroke="#6c411a" vector-effect="non-scaling-stroke" d="
  M 130.0841 233.0639
  A 1.18 1.18 0.0 0 0 128.9893 231.8044
  L 128.4107 231.7640
  A 1.18 1.18 0.0 0 0 127.1512 232.8588
  L 127.0759 233.9361
  A 1.18 1.18 0.0 0 0 128.1707 235.1956
  L 128.7493 235.2360
  A 1.18 1.18 0.0 0 0 130.0088 234.1412
  L 130.0841 233.0639"
/>
<path stroke="#6c411a" vector-effect="non-scaling-stroke" d="
  M 135.4120 235.2361
  A 1.78 1.36 93.8 0 0 136.8870 233.5501
  A 1.78 1.36 93.8 0 0 135.6480 231.6839
  A 1.78 1.36 93.8 0 0 134.1730 233.3699
  A 1.78 1.36 93.8 0 0 135.4120 235.2361"
/>
</g>
<path fill="#9f5a21" d="
  M 253.80 104.28
  L 242.05 91.02
  L 240.56 78.34
  Q 240.19 75.23 243.29 74.84
  Q 243.43 74.83 243.56 74.81
  Q 246.70 74.42 247.07 77.55
  Q 248.12 86.38 249.42 95.80
  Q 249.47 96.20 249.73 96.52
  A 0.64 0.64 0.0 0 0 250.83 96.34
  Q 254.01 88.11 256.79 77.11
  A 2.60 2.60 0.0 0 1 258.72 75.22
  Q 259.67 74.99 260.55 75.22
  A 2.38 2.38 0.0 0 1 262.30 77.96
  Q 260.36 88.23 257.24 98.15
  C 256.51 100.47 255.14 102.24 253.80 104.28
  Z"
/>
<path fill="#9f5a21" d="
  M 235.33 83.30
  Q 234.36 85.65 231.14 86.96
  L 228.33 79.15
  Q 227.60 77.12 229.69 76.58
  L 231.22 76.18
  Q 233.25 75.65 233.79 77.67
  L 235.33 83.30
  Z"
/>
<path fill="#382713" d="
  M 278.92 89.95
  C 278.66 92.47 280.72 93.82 282.44 95.17
  L 281.40 99.32
  Q 280.96 101.10 282.31 99.86
  L 293.74 89.46
  L 298.50 92.99
  Q 294.86 97.28 293.56 98.32
  Q 285.68 104.64 282.32 107.57
  C 280.53 109.12 278.84 111.20 277.88 113.38
  Q 274.22 121.70 271.81 130.56
  Q 271.42 132.01 270.16 133.09
  C 266.70 136.05 263.67 138.85 260.99 142.46
  Q 259.77 144.10 261.37 142.83
  C 265.10 139.86 268.70 136.66 272.68 133.92
  Q 275.60 131.90 278.16 129.38
  Q 280.38 127.21 282.43 123.83
  Q 285.62 118.58 288.74 113.30
  Q 292.62 106.74 297.11 98.63
  Q 297.52 97.90 298.13 97.34
  Q 298.54 96.97 299.09 96.93
  C 301.79 96.74 302.55 98.81 301.85 101.15
  Q 301.10 103.66 299.80 106.32
  Q 296.22 113.68 291.89 120.52
  Q 291.27 121.50 292.39 121.22
  L 300.70 119.19
  Q 301.91 118.89 302.41 117.74
  C 303.42 115.44 305.16 113.68 305.09 111.03
  C 304.92 104.48 306.05 98.03 308.17 91.47
  Q 309.08 88.64 311.93 89.51
  Q 312.40 89.65 312.81 89.99
  Q 314.32 91.25 313.78 93.14
  Q 311.98 99.38 311.02 106.19
  Q 310.89 107.12 311.62 106.54
  L 320.89 99.22
  L 323.34 104.67
  Q 317.24 109.75 311.22 114.96
  Q 310.11 115.93 309.45 117.32
  Q 309.22 117.79 309.73 117.68
  Q 318.41 115.81 326.57 112.18
  Q 327.44 115.40 329.13 117.92
  Q 320.66 121.63 314.85 129.32
  Q 314.33 130.02 315.20 130.01
  L 316.99 129.98
  Q 317.50 129.98 317.97 130.17
  Q 319.90 130.94 321.66 129.91
  Q 327.43 126.53 332.01 124.54
  C 332.66 126.58 333.20 130.09 335.72 130.24
  L 323.41 135.42
  A 9.25 9.21 35.5 0 1 319.20 136.12
  L 310.42 135.52
  A 2.54 2.53 -63.1 0 0 308.57 136.13
  L 303.23 140.77
  Q 302.40 141.49 303.49 141.63
  L 321.90 144.07
  Q 322.42 144.14 322.88 143.88
  C 328.58 140.60 335.03 135.80 341.71 135.57
  Q 341.49 138.31 343.51 140.76
  C 339.58 142.06 336.02 142.43 332.72 145.07
  Q 331.67 145.90 333.01 145.98
  L 346.92 146.73
  L 346.44 152.59
  Q 330.01 152.30 324.24 151.35
  Q 310.90 149.15 297.79 147.88
  Q 294.25 147.54 297.48 149.03
  Q 304.36 152.21 310.75 154.51
  Q 314.76 155.95 320.98 156.70
  Q 327.41 157.48 333.85 158.45
  Q 331.96 161.40 331.92 164.41
  Q 317.49 163.39 304.02 158.27
  Q 300.28 156.85 297.31 156.28
  Q 295.00 155.83 292.75 155.37
  C 289.15 154.63 285.62 155.18 282.16 156.18
  C 275.80 158.02 271.37 164.26 269.39 170.29
  Q 268.42 173.24 268.86 178.07
  Q 270.47 195.69 272.03 208.29
  Q 273.86 223.17 275.58 237.15
  C 276.06 241.13 276.79 245.10 277.07 249.08
  Q 277.12 249.70 276.50 249.70
  L 253.02 249.70
  L 247.49 131.84
  Q 246.28 128.01 245.35 126.90
  C 242.97 124.07 241.41 122.15 238.61 118.35
  Q 236.80 115.90 234.49 113.76
  C 230.60 110.14 236.06 104.89 238.82 109.32
  Q 241.45 113.54 245.03 116.45
  Q 245.59 116.91 245.56 116.18
  Q 245.33 111.19 245.11 106.52
  C 244.96 103.30 241.52 100.51 239.88 98.13
  Q 238.24 95.75 236.68 94.16
  C 234.55 91.98 232.32 89.93 231.14 86.96
  Q 234.36 85.65 235.33 83.30
  L 242.05 91.02
  L 253.80 104.28
  L 253.99 113.59
  A 0.29 0.29 0.0 0 0 254.48 113.79
  L 259.55 108.67
  Q 259.93 108.29 260.02 107.76
  C 260.61 104.42 261.30 101.03 262.37 97.82
  Q 265.58 88.19 268.45 78.82
  Q 269.32 76.00 272.20 76.66
  Q 272.77 76.79 273.27 77.12
  Q 275.04 78.27 274.43 80.30
  Q 271.96 88.46 268.93 96.95
  Q 266.74 103.08 265.73 108.97
  C 265.10 112.69 262.64 113.30 260.75 115.96
  Q 258.48 119.15 256.01 122.04
  A 2.51 2.51 0.0 0 0 255.41 123.87
  L 256.17 133.66
  A 0.27 0.27 0.0 0 0 256.57 133.87
  C 257.86 133.08 259.08 132.42 260.12 131.30
  Q 262.52 128.74 265.26 126.76
  A 1.65 1.61 -8.6 0 0 265.85 125.98
  L 278.92 89.95
  Z
  M 262.43 157.81
  C 264.38 156.45 266.28 155.06 268.17 153.57
  Q 273.08 149.69 279.74 148.29
  Q 284.60 147.27 286.77 145.83
  Q 291.68 142.58 297.69 137.12
  C 298.62 136.27 299.80 135.72 300.68 134.87
  Q 306.15 129.60 311.39 124.14
  Q 311.91 123.60 311.17 123.70
  C 303.56 124.82 297.31 127.31 290.24 129.56
  Q 287.88 130.30 285.96 131.92
  C 276.73 139.62 269.41 148.19 262.37 157.75
  A 0.04 0.04 0.0 0 0 262.43 157.81
  Z"
/>
<path fill="#9f5a21" d="
  M 227.60 105.92
  Q 220.23 92.46 217.83 82.01
  Q 217.28 79.65 219.40 78.47
  Q 219.78 78.25 220.23 78.23
  Q 222.19 78.11 222.92 79.94
  L 232.33 103.97
  Q 232.97 105.59 231.45 106.43
  L 230.74 106.83
  Q 228.71 107.95 227.60 105.92
  Z"
/>
<path fill="#9f5a21" d="
  M 282.44 95.17
  C 280.72 93.82 278.66 92.47 278.92 89.95
  L 281.38 81.49
  Q 281.97 79.45 284.04 79.88
  L 284.78 80.03
  Q 287.73 80.64 286.70 83.47
  L 282.44 95.17
  Z"
/>
<path fill="#9f5a21" d="
  M 220.53 103.78
  Q 219.21 106.81 215.14 107.33
  Q 209.73 96.64 206.16 84.49
  A 2.45 2.45 0.0 0 1 207.45 81.59
  Q 211.07 79.86 212.40 83.85
  C 214.57 90.40 216.64 98.02 220.53 103.78
  Z"
/>
<path fill="#382713" d="
  M 215.14 107.33
  Q 219.21 106.81 220.53 103.78
  Q 225.34 112.72 231.28 120.97
  Q 231.66 121.51 232.30 121.55
  Q 232.36 121.72 232.37 121.87
  Q 232.40 122.15 232.61 122.33
  Q 238.53 127.49 240.18 134.51
  Q 236.37 131.46 233.24 131.02
  Q 230.14 130.58 225.30 131.54
  Q 224.17 131.77 222.40 131.02
  Q 216.83 128.69 210.28 126.20
  C 206.68 124.83 203.19 122.47 199.35 121.90
  Q 190.32 120.55 179.85 117.83
  Q 177.32 117.17 177.68 114.59
  Q 177.74 114.19 177.92 113.80
  Q 178.77 112.03 180.70 112.39
  L 188.52 113.87
  A 0.37 0.37 0.0 0 0 188.93 113.36
  C 187.17 109.21 184.09 106.64 180.95 103.62
  Q 182.66 102.24 183.86 100.47
  Q 184.57 99.42 186.28 97.59
  Q 187.84 95.92 188.33 93.45
  L 196.05 113.00
  Q 196.72 114.68 198.52 114.94
  L 201.29 115.33
  Q 202.44 115.49 202.14 114.38
  L 194.91 87.23
  Q 194.24 84.73 196.74 84.06
  L 197.15 83.95
  Q 199.31 83.38 200.01 85.50
  Q 204.44 99.01 207.79 111.74
  Q 208.58 114.75 211.77 118.89
  Q 213.15 120.69 215.02 121.28
  Q 220.07 122.87 224.71 124.48
  Q 225.45 124.74 225.11 124.03
  Q 223.04 119.83 220.44 115.77
  Q 219.93 114.97 218.18 111.35
  Q 217.06 109.03 215.14 107.33
  Z"
/>
<path fill="#9f5a21" d="
  M 298.50 92.99
  L 293.74 89.46
  C 295.11 87.36 298.97 81.31 301.76 85.51
  C 303.59 88.27 300.72 91.10 298.50 92.99
  Z"
/>
<path fill="#9f5a21" d="
  M 188.33 93.45
  Q 187.84 95.92 186.28 97.59
  Q 184.57 99.42 183.86 100.47
  Q 182.66 102.24 180.95 103.62
  L 174.46 97.62
  Q 172.77 96.07 174.49 94.55
  L 174.86 94.22
  Q 176.61 92.68 178.28 94.30
  Q 179.97 95.93 181.76 97.37
  Q 183.63 98.88 182.99 96.56
  Q 182.44 94.59 181.57 92.69
  Q 180.74 90.90 182.56 90.13
  L 184.35 89.38
  Q 185.95 88.70 186.74 90.26
  L 188.33 93.45
  Z"
/>
<path fill="#9f5a21" d="
  M 323.34 104.67
  L 320.89 99.22
  L 323.13 97.02
  Q 323.50 96.65 324.01 96.78
  C 325.73 97.19 328.25 99.23 326.84 101.30
  Q 325.44 103.33 323.34 104.67
  Z"
/>
<rect fill="#9f5a21" x="-3.04" y="-7.74" transform="translate(171.28,106.13) rotate(-42.7)" width="6.08" height="15.48" rx="2.55"/>
<path fill="#9f5a21" d="
  M 329.13 117.92
  Q 327.44 115.40 326.57 112.18
  L 335.44 107.51
  Q 337.55 106.40 339.18 108.15
  Q 339.76 108.78 340.05 109.51
  Q 341.26 112.66 338.17 114.00
  L 329.13 117.92
  Z"
/>
<path fill="#9f5a21" d="
  M 178.53 127.23
  Q 173.36 127.62 169.69 125.52
  Q 163.79 119.70 157.11 113.94
  Q 154.82 111.96 156.08 109.04
  Q 156.17 108.84 156.30 108.67
  Q 158.25 106.28 160.55 108.34
  C 163.02 110.55 165.13 112.95 167.70 115.13
  Q 171.93 118.73 175.94 123.05
  Q 177.34 124.56 178.53 127.23
  Z"
/>
<path fill="#9f5a21" d="
  M 335.72 130.24
  C 333.20 130.09 332.66 126.58 332.01 124.54
  L 344.58 119.98
  Q 347.72 118.83 349.18 121.84
  Q 349.24 121.97 349.30 122.10
  Q 350.83 125.26 347.50 126.35
  L 335.72 130.24
  Z"
/>
<path fill="#9f5a21" d="
  M 163.55 124.49
  L 161.75 130.06
  Q 155.99 128.83 148.18 126.02
  Q 146.38 125.37 146.71 122.75
  Q 146.77 122.27 147.04 121.86
  Q 148.75 119.28 151.67 120.31
  L 163.55 124.49
  Z"
/>
<path fill="#9f5a21" d="
  M 247.49 131.84
  L 253.02 249.70
  L 242.82 249.67
  Q 241.85 249.66 241.88 248.70
  Q 243.74 192.42 243.98 139.83
  Q 243.99 138.58 243.06 137.69
  Q 241.24 135.95 240.18 134.51
  Q 238.53 127.49 232.61 122.33
  Q 232.40 122.15 232.37 121.87
  Q 232.36 121.72 232.30 121.55
  Q 235.10 120.40 237.47 122.83
  Q 241.69 127.14 247.49 131.84
  Z"
/>
<path fill="#382713" d="
  M 230.17 137.33
  Q 231.75 139.70 234.37 140.89
  A 0.75 0.74 -75.1 0 1 234.80 141.64
  L 233.51 155.13
  L 226.38 145.41
  A 1.87 1.87 0.0 0 0 224.75 144.66
  Q 219.83 145.02 214.72 145.15
  C 210.51 145.26 205.58 141.85 201.89 140.12
  Q 196.84 137.76 187.73 136.10
  Q 174.61 133.70 161.75 130.06
  L 163.55 124.49
  L 169.69 125.52
  Q 173.36 127.62 178.53 127.23
  L 193.56 131.24
  Q 195.02 131.64 194.01 130.51
  L 189.98 126.03
  A 2.32 2.32 0.0 0 1 189.95 122.96
  C 191.91 120.69 195.24 122.46 196.74 124.43
  Q 203.19 132.91 211.07 137.32
  Q 212.57 138.17 214.50 138.07
  Q 222.42 137.67 230.17 137.33
  Z"
/>
<path fill="#9f5a21" d="
  M 343.51 140.76
  Q 341.49 138.31 341.71 135.57
  L 350.23 133.83
  Q 352.16 133.44 353.49 134.90
  Q 354.16 135.65 354.02 136.50
  Q 353.59 139.20 350.89 139.61
  L 343.51 140.76
  Z"
/>
<path fill="#9f5a21" d="
  M 162.77 136.19
  L 162.63 141.18
  Q 153.35 140.23 144.50 139.30
  Q 143.17 139.16 142.73 137.04
  Q 142.64 136.64 142.77 136.29
  Q 143.71 133.74 146.12 134.02
  Q 155.15 135.10 162.77 136.19
  Z"
/>
<path fill="#9f5a21" d="
  M 396.67 152.46
  C 394.48 150.47 391.49 153.64 389.75 154.92
  A 1.53 1.53 0.0 0 1 387.69 154.71
  L 386.07 152.90
  Q 385.01 151.71 385.11 153.31
  Q 385.18 154.50 386.14 155.60
  A 0.47 0.46 71.7 0 1 385.76 156.37
  L 385.18 156.32
  Q 383.26 153.43 380.70 151.10
  C 379.44 149.94 378.05 149.82 376.70 148.94
  Q 376.32 148.70 376.20 148.26
  Q 375.12 144.42 372.90 141.03
  A 1.34 1.33 58.0 0 1 373.33 139.16
  L 374.06 138.73
  A 1.52 1.51 65.5 0 1 376.28 139.56
  Q 377.33 142.74 378.51 144.99
  Q 379.83 147.51 379.78 144.67
  Q 379.73 142.35 378.36 138.93
  Q 377.76 137.43 379.29 136.91
  L 379.98 136.67
  Q 381.38 136.19 381.69 137.64
  Q 382.83 143.08 383.93 148.01
  Q 384.16 149.03 384.75 149.48
  Q 385.67 150.20 385.65 149.03
  Q 385.56 143.09 384.73 137.35
  A 1.24 1.23 -28.0 0 1 385.05 136.32
  Q 385.56 135.78 386.13 135.77
  Q 387.66 135.74 387.81 137.26
  L 388.98 148.70
  Q 389.02 149.17 389.49 149.18
  L 389.84 149.18
  Q 390.05 149.18 390.08 148.97
  L 391.29 137.43
  Q 391.46 135.82 393.08 135.86
  L 393.40 135.87
  Q 395.29 135.91 395.01 137.77
  L 393.47 148.12
  A 0.45 0.44 -82.6 0 0 393.86 148.63
  L 394.14 148.66
  Q 395.02 148.75 395.23 147.89
  Q 396.41 143.11 397.49 138.10
  Q 397.87 136.29 399.65 136.63
  Q 400.11 136.71 400.41 137.31
  Q 401.07 138.59 400.62 139.96
  L 398.75 145.66
  Q 398.50 146.40 399.26 146.19
  Q 400.20 145.93 400.64 144.96
  Q 401.92 142.17 403.19 139.67
  A 1.68 1.68 0.0 0 1 404.05 138.87
  Q 405.43 138.32 405.97 138.81
  Q 406.98 139.76 406.39 141.01
  L 403.10 147.92
  Q 402.87 148.43 402.40 148.73
  L 396.67 152.46
  Z"
/>
<path fill="#382713" d="
  M 162.77 136.19
  Q 168.28 136.61 173.14 139.33
  Q 173.60 139.59 174.11 139.47
  L 181.85 137.65
  Q 183.03 137.37 184.15 137.83
  C 190.70 140.50 196.03 145.24 201.51 149.92
  C 203.21 151.36 204.58 152.18 206.95 152.18
  Q 217.38 152.14 225.76 156.39
  L 239.94 175.56
  Q 239.38 207.75 238.61 218.30
  Q 237.94 227.51 237.62 236.73
  Q 237.41 242.93 236.89 249.12
  Q 236.85 249.63 236.34 249.63
  L 228.77 249.69
  Q 232.12 217.21 232.91 184.75
  Q 233.08 177.63 227.71 174.64
  Q 223.42 167.41 217.02 162.45
  C 210.02 157.03 198.91 158.29 190.88 161.33
  C 186.40 163.03 182.33 165.30 177.32 166.12
  Q 174.26 166.62 170.79 167.33
  C 168.64 167.78 166.46 168.59 165.55 165.89
  C 164.39 162.48 168.97 161.61 171.28 161.86
  Q 171.77 161.91 172.20 161.67
  Q 172.83 161.31 173.50 161.22
  Q 176.83 160.80 179.60 159.85
  Q 180.23 159.64 179.66 159.29
  Q 174.61 156.22 171.19 156.23
  Q 165.96 156.26 157.75 157.92
  A 3.25 3.00 71.3 0 1 154.35 156.07
  Q 154.27 155.91 154.25 155.73
  Q 153.91 153.06 156.57 152.61
  L 172.92 149.88
  A 3.42 3.39 53.7 0 1 175.09 150.22
  C 178.67 152.09 182.44 153.80 186.36 154.94
  C 189.29 155.79 192.47 154.02 195.28 153.27
  Q 196.09 153.05 195.43 152.52
  Q 191.60 149.49 187.48 146.55
  C 185.12 144.86 182.83 143.93 179.73 144.50
  Q 176.11 145.16 172.21 145.71
  C 167.19 146.42 161.75 147.62 156.44 148.31
  Q 156.80 145.67 156.01 143.15
  Q 159.70 142.83 162.63 141.18
  L 162.77 136.19
  Z"
/>
<path fill="#9f5a21" d="
  M 239.94 175.56
  L 225.76 156.39
  Q 231.55 157.48 235.56 160.52
  Q 237.55 162.03 236.47 159.78
  Q 235.36 157.49 233.51 155.13
  L 234.80 141.64
  A 0.75 0.74 -75.1 0 0 234.37 140.89
  Q 231.75 139.70 230.17 137.33
  Q 236.52 134.73 240.32 140.31
  Q 240.61 140.72 240.60 141.23
  L 239.94 175.56
  Z"
/>
<path fill="#9f5a21" d="
  M 384.84 164.97
  A 0.60 0.59 -80.6 0 1 384.13 165.48
  Q 382.36 165.12 381.49 163.54
  Q 379.16 159.31 376.82 156.98
  C 375.15 155.32 373.43 154.43 372.33 152.11
  Q 370.54 148.35 368.01 144.97
  Q 366.76 143.30 368.52 142.19
  L 368.92 141.94
  Q 370.52 140.94 371.30 142.65
  Q 374.47 149.62 377.38 152.16
  C 381.52 155.78 385.69 158.46 384.84 164.97
  Z"
/>
<path fill="#9f5a21" d="
  M 404.04 156.03
  C 401.58 158.12 399.95 160.62 398.26 163.38
  Q 397.00 165.44 394.43 165.24
  A 0.59 0.59 0.0 0 1 393.92 164.46
  C 395.04 161.07 396.33 157.84 399.05 155.35
  C 401.48 153.13 404.11 151.01 405.57 148.10
  Q 406.85 145.52 408.24 142.85
  Q 409.07 141.25 410.62 142.19
  L 410.95 142.39
  Q 412.50 143.32 411.45 144.79
  Q 408.64 148.75 406.59 152.78
  Q 405.60 154.71 404.04 156.03
  Z"
/>
<path fill="#9f5a21" d="
  M 156.01 143.15
  Q 156.80 145.67 156.44 148.31
  Q 154.99 149.00 153.51 147.42
  A 2.04 2.04 0.0 0 1 154.02 144.24
  L 156.01 143.15
  Z"
/>
<path fill="#9f5a21" d="
  M 346.44 152.59
  L 346.92 146.73
  C 348.38 146.28 350.72 146.96 350.88 148.71
  C 351.18 151.95 349.71 153.42 346.44 152.59
  Z"
/>
<path fill="#9f5a21" d="
  M 385.75 170.03
  Q 386.41 172.95 385.51 174.38
  L 375.79 168.90
  Q 375.36 168.66 375.27 168.18
  L 374.42 163.91
  A 1.43 1.41 13.9 0 0 373.90 163.06
  Q 371.93 161.52 369.33 160.89
  Q 364.66 159.76 360.52 158.60
  Q 358.66 158.09 359.37 156.30
  Q 359.48 156.03 359.63 155.77
  Q 360.64 154.03 362.35 155.10
  Q 363.93 156.09 365.59 156.87
  Q 366.23 157.18 366.89 156.93
  A 0.45 0.45 0.0 0 0 367.08 156.23
  L 362.62 150.73
  Q 361.71 149.61 362.74 148.60
  L 363.33 148.02
  Q 364.30 147.08 365.11 148.16
  Q 367.70 151.60 370.17 154.86
  Q 371.30 156.35 372.66 157.16
  C 374.05 158.00 375.74 158.49 376.50 160.08
  C 378.03 163.28 377.72 165.47 381.34 167.22
  Q 383.68 168.35 385.75 170.03
  Z"
/>
<path fill="#9f5a21" d="
  M 393.80 174.11
  Q 392.99 172.36 393.33 169.72
  C 395.35 168.27 398.04 167.35 399.89 165.70
  C 401.91 163.89 401.85 161.11 403.96 159.41
  C 405.74 157.98 408.15 157.01 409.33 154.99
  Q 411.36 151.49 414.28 148.42
  Q 415.23 147.42 416.36 148.21
  L 416.91 148.60
  Q 418.37 149.63 417.15 150.92
  L 412.42 155.95
  Q 411.09 157.36 412.98 156.93
  Q 415.38 156.39 417.64 155.05
  Q 419.23 154.11 420.00 155.79
  L 420.14 156.09
  A 1.94 1.94 0.0 0 1 418.91 158.76
  Q 414.25 160.07 409.84 160.84
  C 407.24 161.28 404.97 163.32 404.68 166.03
  Q 404.59 166.92 404.45 167.81
  Q 404.37 168.32 403.92 168.56
  L 393.80 174.11
  Z"
/>
<path fill="#382713" d="
  M 396.67 152.46
  L 392.59 156.38
  Q 392.23 156.73 392.21 157.24
  Q 391.96 163.50 393.33 169.72
  Q 392.99 172.36 393.80 174.11
  Q 393.29 177.09 394.39 178.13
  L 394.41 179.50
  A 0.58 0.57 -20.9 0 0 395.36 179.92
  L 400.85 175.22
  L 403.37 173.65
  L 405.99 177.30
  Q 399.96 181.00 396.24 186.68
  Q 395.76 187.40 395.81 188.27
  Q 396.69 205.08 398.59 222.40
  C 398.74 223.78 399.45 224.92 399.07 226.24
  Q 398.99 226.52 399.20 226.71
  Q 399.30 226.80 399.46 226.82
  L 399.29 227.05
  Q 399.16 227.23 399.16 227.45
  Q 399.07 232.51 399.88 237.07
  A 1.57 1.57 0.0 0 0 402.53 237.92
  C 404.09 236.38 404.78 234.20 407.32 234.11
  Q 411.71 233.95 416.36 233.93
  A 2.10 2.10 0.0 0 0 418.30 232.64
  C 421.34 225.50 421.05 217.59 419.76 210.15
  Q 419.39 208.06 420.51 209.86
  C 423.44 214.62 426.15 218.98 428.49 224.21
  Q 431.46 230.82 434.12 237.24
  Q 434.31 237.70 434.81 237.72
  L 439.00 237.87
  L 439.20 248.75
  Q 439.22 249.69 438.27 249.69
  L 355.27 249.72
  A 0.86 0.86 0.0 0 1 354.41 248.85
  Q 354.53 242.48 354.45 236.24
  C 354.37 230.35 346.79 230.19 346.54 235.37
  Q 346.22 242.20 346.32 249.16
  A 0.57 0.56 90.0 0 1 345.76 249.73
  L 307.00 249.73
  A 0.24 0.23 0.0 0 1 306.76 249.50
  L 306.76 241.03
  Q 306.76 239.04 304.77 239.01
  L 304.05 239.00
  Q 302.08 238.98 302.06 240.95
  L 301.97 249.04
  A 0.77 0.76 -89.6 0 1 301.21 249.80
  L 285.58 249.69
  Q 284.63 249.68 284.60 248.73
  L 284.39 239.49
  L 284.60 237.13
  Q 284.68 236.20 285.61 236.16
  L 305.88 235.36
  L 305.25 217.18
  A 0.37 0.37 0.0 0 1 305.95 216.99
  L 311.87 227.56
  Q 311.90 227.62 311.95 227.57
  Q 312.03 227.47 312.11 227.37
  Q 312.24 228.00 313.12 228.12
  L 316.26 230.23
  Q 316.96 230.90 316.95 232.01
  Q 316.93 236.78 316.81 241.28
  Q 316.79 241.92 317.43 241.93
  L 321.30 241.96
  Q 321.95 241.97 321.95 241.32
  Q 321.96 238.21 321.95 235.18
  C 321.93 231.80 319.18 230.89 316.70 229.74
  Q 316.18 229.33 316.04 228.65
  Q 315.94 228.15 315.43 228.15
  L 314.46 228.15
  L 319.12 228.12
  L 356.44 227.65
  Q 356.70 227.64 356.93 227.75
  Q 357.10 227.83 357.28 227.83
  Q 371.61 227.96 386.96 227.82
  A 0.15 0.15 0.0 0 0 387.06 227.56
  Q 387.01 227.50 386.89 227.38
  Q 386.87 227.36 386.85 227.36
  C 383.65 227.10 380.60 226.80 377.41 226.83
  Q 348.52 227.17 318.59 226.28
  Q 318.12 226.26 317.83 225.90
  L 317.21 225.14
  Q 318.96 224.51 319.71 222.63
  L 326.45 221.82
  L 345.19 221.98
  A 1.94 1.93 17.0 0 0 346.82 221.12
  C 351.21 214.45 352.48 207.54 353.85 199.84
  Q 353.95 199.26 354.40 198.85
  A 0.16 0.16 0.0 0 1 354.66 198.90
  L 365.35 221.03
  Q 365.93 222.23 367.26 222.16
  Q 376.12 221.65 384.73 221.95
  Q 385.30 221.97 385.31 221.40
  Q 385.36 205.11 385.33 190.25
  Q 385.33 187.29 384.77 183.94
  Q 384.27 180.97 383.74 177.83
  L 384.73 178.11
  Q 385.31 178.28 385.34 177.68
  L 385.51 174.38
  Q 386.41 172.95 385.75 170.03
  Q 386.57 163.70 386.49 159.50
  Q 386.46 157.92 385.18 156.32
  L 385.76 156.37
  A 0.47 0.46 71.7 0 0 386.14 155.60
  Q 385.18 154.50 385.11 153.31
  Q 385.01 151.71 386.07 152.90
  L 387.69 154.71
  A 1.53 1.53 0.0 0 0 389.75 154.92
  C 391.49 153.64 394.48 150.47 396.67 152.46
  Z
  M 380.07 241.95
  L 383.47 241.85
  A 0.64 0.64 0.0 0 0 384.09 241.19
  L 383.94 236.11
  A 4.20 2.16 88.3 0 0 381.65 231.98
  L 381.29 231.99
  A 4.20 2.16 88.3 0 0 379.26 236.25
  L 379.41 241.33
  A 0.64 0.64 0.0 0 0 380.07 241.95
  Z
  M 369.84 242.05
  L 372.58 242.01
  A 0.96 0.96 0.0 0 0 373.53 241.03
  L 373.43 235.40
  A 3.07 2.08 89.0 0 0 371.30 232.37
  L 370.80 232.38
  A 3.07 2.08 89.0 0 0 368.77 235.48
  L 368.87 241.11
  A 0.96 0.96 0.0 0 0 369.84 242.05
  Z
  M 331.73 241.46
  Q 334.50 242.20 337.18 241.78
  Q 337.85 241.68 337.87 241.00
  L 338.02 235.02
  Q 338.03 234.41 337.43 234.26
  Q 334.55 233.55 331.75 234.42
  Q 329.98 233.76 327.84 233.99
  Q 327.30 234.04 327.31 234.59
  L 327.45 241.00
  Q 327.46 241.62 328.08 241.70
  Q 330.04 241.96 331.73 241.46
  Z
  M 412.29 245.61
  L 415.09 245.61
  A 0.95 0.95 0.0 0 0 416.03 244.65
  L 416.01 238.92
  A 2.46 2.17 89.8 0 0 413.83 236.47
  L 413.47 236.47
  A 2.46 2.17 89.8 0 0 411.31 238.94
  L 411.33 244.67
  A 0.95 0.95 0.0 0 0 412.29 245.61
  Z
  M 421.75 245.49
  L 424.75 245.55
  A 0.84 0.84 0.0 0 0 425.61 244.72
  L 425.70 239.85
  A 3.30 2.14 -88.9 0 0 423.63 236.50
  L 423.23 236.50
  A 3.30 2.14 -88.9 0 0 421.02 239.76
  L 420.93 244.63
  A 0.84 0.84 0.0 0 0 421.75 245.49
  Z
  M 290.5173 241.8653
  A 0.69 0.69 0.0 0 0 289.8178 241.1850
  L 289.0778 241.1953
  A 0.69 0.69 0.0 0 0 288.3975 241.8949
  L 288.4227 243.6947
  A 0.69 0.69 0.0 0 0 289.1222 244.3750
  L 289.8622 244.3647
  A 0.69 0.69 0.0 0 0 290.5425 243.6651
  L 290.5173 241.8653
  Z
  M 292.5561 244.5920
  A 1.68 0.67 95.6 0 0 293.3868 242.9854
  A 1.68 0.67 95.6 0 0 292.8839 241.2480
  A 1.68 0.67 95.6 0 0 292.0532 242.8546
  A 1.68 0.67 95.6 0 0 292.5561 244.5920
  Z
  M 295.9285 244.8237
  A 1.81 0.58 94.8 0 0 296.6580 243.0685
  A 1.81 0.58 94.8 0 0 296.2315 241.2163
  A 1.81 0.58 94.8 0 0 295.5020 242.9715
  A 1.81 0.58 94.8 0 0 295.9285 244.8237
  Z"
/>
<path fill="#9f5a21" d="
  M 333.85 158.45
  C 337.31 158.52 340.90 161.48 337.41 164.56
  Q 337.03 164.89 336.53 164.92
  Q 334.20 165.07 331.92 164.41
  Q 331.96 161.40 333.85 158.45
  Z"
/>
<path fill="#9f5a21" d="
  M 383.74 177.83
  Q 384.27 180.97 384.77 183.94
  Q 385.33 187.29 385.33 190.25
  Q 385.36 205.11 385.31 221.40
  Q 385.30 221.97 384.73 221.95
  Q 376.12 221.65 367.26 222.16
  Q 365.93 222.23 365.35 221.03
  L 354.66 198.90
  A 0.16 0.16 0.0 0 0 354.40 198.85
  Q 353.95 199.26 353.85 199.84
  C 352.48 207.54 351.21 214.45 346.82 221.12
  A 1.94 1.93 17.0 0 1 345.19 221.98
  L 326.45 221.82
  Q 334.56 214.37 340.43 205.70
  C 342.79 202.22 344.48 198.19 346.41 194.45
  Q 348.37 190.66 349.81 186.15
  Q 350.14 185.13 349.59 184.43
  Q 349.05 183.74 347.85 183.47
  Q 346.50 178.89 349.56 177.37
  Q 353.91 175.22 356.17 179.04
  C 357.12 180.65 355.97 182.67 356.87 184.48
  C 363.19 197.23 371.54 207.73 380.95 218.24
  Q 382.15 219.59 382.23 217.78
  Q 382.81 204.65 383.70 189.67
  C 383.85 187.11 381.36 184.58 379.94 182.58
  Q 377.12 178.60 372.92 178.02
  C 369.81 177.59 367.04 179.20 363.95 179.47
  Q 362.58 179.59 361.94 178.38
  Q 361.79 178.09 361.79 177.76
  Q 361.82 176.61 362.94 176.34
  L 368.05 175.14
  Q 370.03 174.68 368.35 173.54
  C 366.75 172.45 363.36 172.90 361.66 173.26
  Q 359.69 173.68 358.96 171.80
  Q 358.86 171.53 358.89 171.23
  Q 359.10 169.32 361.03 169.37
  L 366.06 169.51
  Q 366.91 169.53 366.77 168.69
  L 366.62 167.86
  A 1.22 1.20 0.1 0 0 365.64 166.89
  L 359.89 165.90
  Q 358.38 165.65 358.63 164.14
  L 358.72 163.60
  Q 359.04 161.59 361.04 161.99
  Q 364.55 162.70 368.61 163.74
  Q 369.97 164.09 370.30 165.40
  C 371.23 169.11 371.33 171.56 375.06 173.68
  Q 377.11 174.85 383.74 177.83
  Z"
/>
<path fill="#9f5a21" d="
  M 405.99 177.30
  L 403.37 173.65
  C 406.87 171.78 407.57 168.86 408.31 164.79
  Q 408.42 164.18 409.03 164.06
  L 418.71 162.12
  Q 420.65 161.73 420.88 163.70
  L 420.96 164.41
  Q 421.17 166.22 419.35 166.37
  L 412.85 166.92
  Q 411.96 167.00 411.91 167.89
  L 411.87 168.65
  Q 411.83 169.35 412.52 169.36
  L 418.63 169.50
  Q 420.52 169.54 420.54 171.43
  Q 420.55 171.73 420.46 172.02
  Q 419.88 173.92 417.97 173.39
  Q 414.80 172.50 411.23 172.85
  Q 410.39 172.94 410.00 173.62
  A 1.02 1.01 21.3 0 0 410.66 175.12
  L 416.98 176.51
  Q 418.59 176.87 418.01 178.42
  Q 417.78 179.01 417.25 179.47
  A 1.77 1.74 31.7 0 1 415.67 179.83
  L 405.99 177.30
  Z"
/>
<path fill="#9f5a21" d="
  M 105.35 186.50
  Q 103.34 188.32 103.29 189.74
  Q 102.90 203.24 103.01 216.69
  Q 103.03 219.35 101.60 217.11
  Q 99.79 214.27 98.79 210.44
  Q 98.30 208.57 97.93 210.47
  Q 96.40 218.59 92.70 227.24
  C 89.70 234.27 83.11 245.28 74.79 246.05
  Q 70.49 246.44 65.79 248.09
  A 1.51 1.31 -12.1 0 0 64.76 249.45
  Q 64.77 249.67 65.96 249.70
  L 61.73 249.66
  Q 62.56 247.00 65.31 245.08
  Q 68.90 242.55 72.45 240.35
  C 79.73 235.84 84.21 231.26 88.82 223.32
  Q 93.40 215.43 94.93 208.96
  Q 95.50 208.51 97.26 208.06
  A 1.02 0.99 53.4 0 1 98.00 208.18
  Q 98.55 208.53 98.95 208.13
  Q 99.27 207.81 99.26 207.35
  C 99.19 203.83 99.76 199.66 98.58 196.39
  Q 97.07 192.20 93.64 190.52
  C 90.36 188.91 85.65 188.02 81.85 187.89
  Q 75.15 187.65 68.38 186.80
  Q 66.74 186.60 66.95 184.95
  L 67.01 184.40
  Q 67.28 182.31 69.34 182.78
  Q 73.27 183.69 76.84 183.85
  Q 79.39 183.97 77.05 182.95
  Q 73.26 181.31 69.42 179.17
  Q 68.40 178.61 69.13 177.70
  L 70.15 176.45
  Q 70.86 175.56 71.80 176.20
  Q 74.63 178.14 77.92 179.42
  Q 79.18 179.91 78.34 178.86
  L 74.76 174.39
  Q 73.36 172.65 75.11 171.27
  L 75.67 170.83
  Q 77.26 169.56 78.24 171.34
  L 81.22 176.73
  A 2.64 2.63 73.6 0 0 83.70 178.09
  L 85.72 177.97
  A 0.44 0.44 0.0 0 1 86.15 178.57
  Q 85.51 180.19 84.14 181.22
  A 0.48 0.47 -46.2 0 0 84.15 181.99
  Q 87.92 184.64 92.66 185.36
  A 1.27 1.27 0.0 0 0 94.08 183.78
  C 93.33 180.91 89.01 178.73 86.63 177.39
  C 84.05 175.94 82.42 172.55 81.22 169.90
  Q 80.41 168.10 82.20 167.26
  L 82.72 167.02
  Q 83.98 166.43 84.55 167.70
  Q 86.83 172.86 88.66 174.15
  A 0.38 0.38 0.0 0 0 89.24 173.70
  Q 87.71 169.60 87.22 166.45
  Q 87.01 165.09 88.38 164.95
  Q 88.62 164.92 88.86 164.86
  Q 90.48 164.39 90.88 166.02
  C 91.81 169.78 92.68 174.72 95.28 177.58
  Q 97.60 180.14 98.79 183.84
  Q 99.37 185.64 101.01 186.13
  Q 101.62 186.32 101.73 185.68
  Q 102.54 180.91 99.15 178.30
  C 94.91 175.03 94.30 170.19 93.37 165.19
  Q 93.15 163.98 94.33 163.66
  L 94.82 163.53
  Q 96.50 163.07 96.79 164.79
  Q 97.61 169.66 100.09 174.71
  Q 100.57 175.68 101.06 174.71
  Q 101.51 173.83 101.60 172.80
  Q 101.72 171.36 101.12 170.04
  L 99.16 165.75
  A 1.99 1.98 -15.1 0 1 100.77 162.96
  Q 101.48 162.88 102.19 163.19
  Q 102.71 163.42 102.80 163.98
  Q 102.93 164.76 103.19 165.50
  Q 103.83 167.31 104.38 165.47
  Q 104.54 164.94 104.52 164.00
  Q 104.51 163.25 105.26 163.16
  L 106.65 163.00
  A 1.06 1.06 0.0 0 1 107.82 163.91
  Q 108.10 165.99 107.56 167.89
  A 2.18 2.16 78.8 0 1 106.81 169.02
  Q 103.88 171.36 105.36 176.33
  Q 105.52 176.90 105.95 176.49
  Q 107.05 175.43 107.59 173.98
  Q 109.18 169.70 110.54 165.21
  Q 110.97 163.78 112.46 163.84
  Q 113.31 163.87 113.86 165.23
  A 1.60 1.54 -50.7 0 1 113.93 166.10
  Q 112.97 170.97 111.09 175.97
  C 110.53 177.45 107.95 179.23 106.79 180.36
  C 105.15 181.95 105.26 184.35 105.35 186.50
  Z"
/>
<path fill="#9f5a21" d="
  M 114.24 185.89
  Q 111.76 186.60 109.79 184.86
  L 113.19 180.33
  Q 113.50 179.91 113.57 179.39
  Q 114.40 172.61 116.21 166.37
  Q 116.60 165.00 118.02 165.12
  Q 118.28 165.14 118.52 165.25
  Q 120.36 166.02 119.79 167.93
  L 116.90 177.75
  Q 116.83 177.97 117.06 177.99
  L 117.45 178.04
  A 0.68 0.67 -73.6 0 0 118.14 177.66
  L 122.58 168.50
  Q 123.41 166.80 124.91 167.96
  L 125.14 168.14
  Q 126.87 169.49 125.55 171.24
  Q 124.23 172.97 123.46 174.80
  Q 122.43 177.27 124.60 175.70
  Q 126.98 173.99 128.97 171.90
  Q 130.23 170.59 131.33 172.09
  Q 131.36 172.13 131.60 172.47
  Q 132.70 173.96 131.20 175.06
  Q 127.07 178.10 120.73 180.53
  Q 117.22 181.88 114.24 185.89
  Z"
/>
<path fill="#9f5a21" d="
  M 228.77 249.69
  L 220.79 249.62
  Q 219.41 249.61 219.62 248.24
  Q 224.07 220.09 227.93 193.25
  Q 228.39 190.05 229.12 183.19
  Q 229.36 180.85 228.89 178.86
  Q 228.42 176.89 227.71 174.64
  Q 233.08 177.63 232.91 184.75
  Q 232.12 217.21 228.77 249.69
  Z"
/>
<path fill="#9f5a21" d="
  M 400.85 175.22
  L 395.36 179.92
  A 0.58 0.57 -20.9 0 1 394.41 179.50
  L 394.39 178.13
  L 400.85 175.22
  Z"
/>
<path fill="#9f5a21" d="
  M 119.24 189.82
  Q 118.52 186.24 120.02 185.96
  Q 124.52 182.15 130.97 178.48
  Q 133.17 177.22 135.22 176.78
  Q 135.80 176.66 136.08 177.17
  L 136.78 178.42
  Q 137.06 178.93 136.63 179.31
  C 134.42 181.29 131.35 182.49 128.77 183.90
  Q 127.45 184.62 128.95 184.57
  Q 132.82 184.42 136.38 182.95
  Q 138.21 182.20 138.75 184.10
  Q 138.84 184.44 138.88 184.56
  Q 139.42 186.48 137.46 186.81
  L 119.24 189.82
  Z"
/>
<path fill="#e4c28e" d="
  M 347.85 183.47
  Q 349.05 183.74 349.59 184.43
  Q 350.14 185.13 349.81 186.15
  Q 348.37 190.66 346.41 194.45
  C 344.48 198.19 342.79 202.22 340.43 205.70
  Q 334.56 214.37 326.45 221.82
  L 319.71 222.63
  Q 320.06 221.63 320.97 220.72
  Q 331.98 209.54 340.55 196.42
  C 343.06 192.57 345.33 187.78 347.85 183.47
  Z"
/>
<path fill="#382713" d="
  M 109.79 184.86
  Q 111.76 186.60 114.24 185.89
  Q 117.30 185.28 120.02 185.96
  Q 118.52 186.24 119.24 189.82
  C 112.27 191.28 109.28 192.50 109.49 200.40
  Q 109.61 204.72 109.86 208.19
  Q 109.88 208.44 110.30 208.70
  Q 110.19 208.81 110.10 208.92
  Q 110.02 209.02 110.04 209.16
  Q 110.46 212.17 110.36 215.47
  Q 110.34 216.02 110.82 216.30
  Q 112.24 217.11 113.50 216.87
  Q 114.67 216.66 114.81 217.54
  Q 111.02 222.40 108.33 224.35
  Q 104.54 227.09 102.93 229.04
  Q 102.79 229.21 102.77 228.99
  Q 102.74 228.71 102.54 228.79
  Q 101.55 229.16 101.40 229.87
  L 98.48 231.88
  L 96.33 234.02
  L 93.86 238.05
  L 90.81 244.44
  A 0.29 0.28 13.7 0 0 91.06 244.84
  C 102.42 245.32 113.53 241.92 120.08 232.35
  Q 125.67 224.17 128.55 215.25
  Q 131.07 207.46 134.43 200.55
  Q 135.74 197.86 135.74 200.86
  Q 135.75 209.27 137.64 216.66
  Q 140.20 226.72 146.33 236.21
  C 150.03 241.93 155.98 245.33 162.80 245.34
  Q 166.56 245.35 170.12 245.80
  Q 171.34 245.96 170.34 245.24
  C 165.05 241.47 160.14 237.74 157.17 231.75
  Q 154.30 225.97 151.49 218.51
  Q 149.03 211.98 151.02 202.15
  Q 154.94 207.33 157.05 213.48
  Q 158.36 217.29 161.32 219.88
  Q 160.95 219.84 160.79 219.98
  A 0.31 0.30 -36.0 0 0 160.73 220.31
  Q 166.13 231.72 177.27 237.52
  C 182.05 240.01 186.99 238.69 191.79 240.52
  Q 194.92 241.72 196.09 243.42
  Q 198.15 246.43 200.84 249.58
  L 135.80 249.74
  A 0.59 0.58 -90.0 0 1 135.22 249.15
  C 135.21 246.87 135.61 242.97 134.41 240.95
  C 133.19 238.88 130.31 239.62 129.35 241.52
  C 128.29 243.64 128.80 246.84 128.77 249.17
  Q 128.76 249.73 128.20 249.73
  L 65.96 249.70
  Q 64.77 249.67 64.76 249.45
  A 1.51 1.31 -12.1 0 1 65.79 248.09
  Q 70.49 246.44 74.79 246.05
  C 83.11 245.28 89.70 234.27 92.70 227.24
  Q 96.40 218.59 97.93 210.47
  Q 98.30 208.57 98.79 210.44
  Q 99.79 214.27 101.60 217.11
  Q 103.03 219.35 103.01 216.69
  Q 102.90 203.24 103.29 189.74
  Q 103.34 188.32 105.35 186.50
  Q 108.42 186.01 109.79 184.86
  Z
  M 130.0841 233.0639
  A 1.18 1.18 0.0 0 0 128.9893 231.8044
  L 128.4107 231.7640
  A 1.18 1.18 0.0 0 0 127.1512 232.8588
  L 127.0759 233.9361
  A 1.18 1.18 0.0 0 0 128.1707 235.1956
  L 128.7493 235.2360
  A 1.18 1.18 0.0 0 0 130.0088 234.1412
  L 130.0841 233.0639
  Z
  M 135.4120 235.2361
  A 1.78 1.36 93.8 0 0 136.8870 233.5501
  A 1.78 1.36 93.8 0 0 135.6480 231.6839
  A 1.78 1.36 93.8 0 0 134.1730 233.3699
  A 1.78 1.36 93.8 0 0 135.4120 235.2361
  Z"
/>
<path fill="#e4c28e" d="
  M 131.94 195.77
  C 128.04 201.45 125.40 207.38 122.17 214.70
  Q 121.04 217.26 116.66 223.27
  Q 113.08 228.18 109.80 230.71
  Q 103.93 235.24 96.22 236.86
  Q 96.94 236.28 96.67 235.69
  Q 96.46 235.22 96.79 234.83
  L 97.18 234.38
  Q 97.47 234.04 97.08 233.83
  Q 96.79 233.66 96.33 234.02
  L 98.48 231.88
  Q 98.20 232.26 98.16 232.55
  Q 98.06 233.12 98.56 232.84
  Q 100.23 231.90 101.40 229.87
  Q 101.55 229.16 102.54 228.79
  Q 102.74 228.71 102.77 228.99
  Q 102.79 229.21 102.93 229.04
  Q 104.54 227.09 108.33 224.35
  Q 111.02 222.40 114.81 217.54
  L 119.62 208.94
  Q 123.14 200.68 124.70 198.76
  Q 125.87 197.32 127.07 195.89
  Q 127.41 195.49 127.93 195.52
  L 131.94 195.77
  Z"
/>
<path fill="#9f5a21" d="
  M 151.02 202.15
  Q 149.03 211.98 151.49 218.51
  Q 154.30 225.97 157.17 231.75
  C 160.14 237.74 165.05 241.47 170.34 245.24
  Q 171.34 245.96 170.12 245.80
  Q 166.56 245.35 162.80 245.34
  C 155.98 245.33 150.03 241.93 146.33 236.21
  Q 140.20 226.72 137.64 216.66
  Q 135.75 209.27 135.74 200.86
  Q 135.74 197.86 134.43 200.55
  Q 131.07 207.46 128.55 215.25
  Q 125.67 224.17 120.08 232.35
  C 113.53 241.92 102.42 245.32 91.06 244.84
  A 0.29 0.28 13.7 0 1 90.81 244.44
  L 93.86 238.05
  L 96.22 236.86
  Q 103.93 235.24 109.80 230.71
  Q 113.08 228.18 116.66 223.27
  Q 121.04 217.26 122.17 214.70
  C 125.40 207.38 128.04 201.45 131.94 195.77
  Q 133.99 195.25 135.75 195.51
  Q 144.02 196.76 151.02 202.15
  Z"
/>
<path fill="#9f5a21" d="
  M 439.00 237.87
  L 434.81 237.72
  Q 434.31 237.70 434.12 237.24
  Q 431.46 230.82 428.49 224.21
  C 426.15 218.98 423.44 214.62 420.51 209.86
  Q 419.39 208.06 419.76 210.15
  C 421.05 217.59 421.34 225.50 418.30 232.64
  A 2.10 2.10 0.0 0 1 416.36 233.93
  Q 411.71 233.95 407.32 234.11
  C 404.78 234.20 404.09 236.38 402.53 237.92
  A 1.57 1.57 0.0 0 1 399.88 237.07
  Q 399.07 232.51 399.16 227.45
  Q 399.16 227.23 399.29 227.05
  L 399.46 226.82
  L 400.02 226.40
  Q 400.75 226.45 401.09 226.06
  Q 401.50 225.59 401.52 225.57
  Q 407.43 220.88 412.23 215.42
  Q 415.36 211.87 417.50 207.22
  A 1.11 1.10 46.0 0 0 417.51 206.31
  Q 417.12 205.39 416.20 205.35
  Q 415.10 200.86 418.23 199.84
  Q 419.49 199.44 420.66 199.96
  C 422.76 200.90 422.59 203.06 422.50 204.96
  Q 422.48 205.49 422.80 205.90
  C 424.53 208.14 426.23 210.30 427.65 212.73
  C 429.54 215.97 432.25 218.41 434.60 221.26
  Q 439.58 227.30 443.95 233.23
  Q 445.37 235.16 446.53 237.27
  Q 446.84 237.83 446.20 237.84
  L 439.00 237.87
  Z"
/>
<path fill="#9f5a21" d="
  M 200.84 249.58
  Q 198.15 246.43 196.09 243.42
  Q 194.92 241.72 191.79 240.52
  C 186.99 238.69 182.05 240.01 177.27 237.52
  Q 166.13 231.72 160.73 220.31
  A 0.31 0.30 -36.0 0 1 160.79 219.98
  Q 160.95 219.84 161.32 219.88
  Q 166.09 224.65 172.20 226.87
  A 0.64 0.64 0.0 0 0 173.05 226.35
  Q 173.44 223.25 173.09 220.27
  Q 173.01 219.57 172.36 219.27
  Q 166.41 216.58 160.67 216.74
  Q 159.66 216.77 159.81 215.78
  L 159.99 214.56
  Q 160.13 213.59 161.10 213.71
  Q 162.27 213.84 163.51 213.73
  Q 165.64 213.54 163.77 212.49
  L 159.97 210.36
  Q 159.50 210.10 159.77 209.65
  L 160.54 208.36
  Q 160.92 207.71 161.60 208.05
  L 167.32 210.93
  Q 168.52 211.53 167.71 210.47
  Q 165.89 208.09 163.72 205.77
  Q 163.23 205.25 163.70 204.72
  Q 164.18 204.17 164.87 203.91
  A 0.95 0.94 62.4 0 1 165.98 204.26
  L 167.24 206.08
  Q 168.20 207.48 168.50 205.81
  Q 168.69 204.77 167.96 203.68
  Q 167.34 202.73 168.28 202.10
  L 168.61 201.88
  A 1.13 1.12 63.5 0 1 170.29 202.45
  L 173.13 210.57
  A 1.36 1.36 0.0 0 0 174.53 211.47
  L 174.85 211.43
  A 0.41 0.41 0.0 0 0 175.22 210.93
  Q 174.37 206.76 172.42 202.53
  Q 171.76 201.09 173.30 200.69
  L 173.97 200.52
  Q 175.23 200.19 175.28 201.49
  Q 175.33 203.02 175.67 204.51
  Q 175.79 205.05 176.23 205.36
  Q 176.92 205.82 176.93 205.00
  L 177.02 200.94
  Q 177.04 200.23 177.67 199.90
  L 177.96 199.75
  A 0.62 0.61 71.4 0 1 178.84 200.19
  Q 179.57 204.28 177.66 209.55
  A 1.36 1.35 -59.2 0 0 178.03 211.03
  Q 179.11 211.99 180.04 211.23
  Q 180.44 210.91 180.50 210.39
  Q 180.93 206.67 180.81 201.32
  Q 180.78 200.00 182.06 200.30
  L 182.60 200.43
  Q 184.02 200.77 183.72 202.19
  Q 183.31 204.09 183.37 206.17
  Q 183.41 207.74 184.14 206.35
  Q 185.23 204.32 186.12 201.90
  A 0.83 0.83 0.0 0 1 187.11 201.38
  Q 188.44 201.72 188.73 202.70
  Q 188.90 203.28 188.49 203.73
  Q 187.25 205.05 187.11 205.82
  Q 186.62 208.60 188.45 206.46
  Q 189.41 205.34 190.18 203.99
  A 1.12 1.10 -80.7 0 1 190.92 203.45
  Q 191.89 203.24 192.29 203.76
  Q 193.27 205.04 192.21 206.24
  Q 191.32 207.26 190.80 208.55
  Q 190.58 209.11 190.03 209.33
  L 185.39 211.22
  A 1.72 1.65 -77.1 0 0 184.87 211.56
  Q 183.76 212.63 184.11 213.44
  Q 184.44 214.22 185.25 213.99
  Q 187.77 213.29 189.77 211.51
  C 191.56 209.92 193.61 208.86 195.60 207.53
  Q 196.19 207.12 196.61 207.71
  Q 197.32 208.72 196.97 210.03
  Q 196.78 210.75 196.05 210.91
  Q 194.71 211.21 193.57 211.99
  Q 191.67 213.27 193.96 213.15
  L 197.09 212.99
  Q 199.06 212.88 198.92 214.85
  Q 198.91 215.00 198.85 215.13
  A 2.51 2.40 18.1 0 1 196.06 216.47
  Q 188.76 214.87 180.42 219.20
  A 2.04 2.04 0.0 0 0 179.34 220.80
  Q 178.74 227.07 183.50 230.10
  C 186.33 231.91 190.45 232.25 193.80 233.48
  Q 201.86 236.43 207.35 240.25
  Q 211.41 243.08 214.81 248.81
  A 0.65 0.64 74.9 0 1 214.25 249.79
  L 200.84 249.58
  Z
  M 168.78 211.58
  A 0.38 0.38 0.0 0 0 168.29 212.12
  L 170.02 214.85
  A 0.38 0.38 0.0 0 0 170.16 214.99
  L 174.49 217.27
  A 0.38 0.38 0.0 0 0 175.05 216.97
  L 175.21 215.12
  A 0.38 0.38 0.0 0 0 175.00 214.74
  L 168.78 211.58
  Z
  M 181.0061 213.9219
  A 2.01 0.99 -40.6 0 0 178.8357 214.4783
  A 2.01 0.99 -40.6 0 0 177.9539 216.5381
  A 2.01 0.99 -40.6 0 0 180.1243 215.9817
  A 2.01 0.99 -40.6 0 0 181.0061 213.9219
  Z"
/>
<path fill="#9f5a21" d="
  M 312.11 227.37
  Q 312.03 227.47 311.95 227.57
  Q 311.90 227.62 311.87 227.56
  L 305.95 216.99
  A 0.37 0.37 0.0 0 0 305.25 217.18
  L 305.88 235.36
  L 285.53 234.43
  Q 284.64 234.39 285.27 233.76
  Q 293.15 225.94 299.82 216.54
  Q 302.90 212.21 302.61 208.34
  Q 301.41 206.83 301.97 204.41
  A 1.77 1.76 7.0 0 1 303.73 203.04
  Q 305.73 203.08 305.82 205.48
  C 305.85 206.57 305.80 207.54 306.37 208.53
  Q 310.77 216.18 316.67 222.27
  A 1.28 1.28 0.0 0 1 316.50 224.20
  L 312.11 227.37
  Z"
/>
<path fill="#e4c28e" d="
  M 416.20 205.35
  Q 417.12 205.39 417.51 206.31
  A 1.11 1.10 46.0 0 1 417.50 207.22
  Q 415.36 211.87 412.23 215.42
  Q 407.43 220.88 401.52 225.57
  Q 401.50 225.59 401.09 226.06
  Q 400.75 226.45 400.02 226.40
  C 400.73 224.88 401.10 223.30 402.24 222.04
  C 407.16 216.61 411.89 211.30 416.20 205.35
  Z"
/>
<path fill="#9f5a21" d="
  M 119.62 208.94
  L 114.81 217.54
  Q 114.67 216.66 113.50 216.87
  Q 112.24 217.11 110.82 216.30
  Q 110.34 216.02 110.36 215.47
  Q 110.46 212.17 110.04 209.16
  Q 110.02 209.02 110.10 208.92
  Q 110.19 208.81 110.30 208.70
  L 119.62 208.94
  Z"
/>
<path fill="#e4c28e" d="
  M 302.61 208.34
  Q 302.90 212.21 299.82 216.54
  Q 293.15 225.94 285.27 233.76
  Q 284.64 234.39 285.53 234.43
  L 305.88 235.36
  L 285.61 236.16
  Q 284.68 236.20 284.60 237.13
  L 284.39 239.49
  Q 283.85 238.50 282.50 238.79
  Q 282.05 238.89 280.84 238.43
  Q 280.27 238.22 280.59 237.71
  C 281.64 235.97 282.53 234.35 283.91 232.78
  Q 288.92 227.10 293.75 221.26
  Q 295.70 218.91 298.19 214.82
  Q 300.18 211.55 302.61 208.34
  Z"
/>
<path fill="#ce9756" d="
  M 94.93 208.96
  Q 93.40 215.43 88.82 223.32
  C 84.21 231.26 79.73 235.84 72.45 240.35
  Q 68.90 242.55 65.31 245.08
  Q 62.56 247.00 61.73 249.66
  L 54.92 249.75
  Q 57.22 243.03 59.91 240.67
  Q 63.61 237.43 67.27 233.51
  Q 74.71 231.42 79.34 227.08
  Q 85.77 221.05 90.11 210.69
  Q 90.30 210.23 90.73 209.98
  Q 92.23 209.09 94.93 208.96
  Z"
/>
<path fill="#e4c28e" d="
  M 317.21 225.14
  L 317.83 225.90
  Q 318.12 226.26 318.59 226.28
  Q 348.52 227.17 377.41 226.83
  C 380.60 226.80 383.65 227.10 386.85 227.36
  Q 386.87 227.36 386.89 227.38
  Q 387.01 227.50 387.06 227.56
  A 0.15 0.15 0.0 0 1 386.96 227.82
  Q 371.61 227.96 357.28 227.83
  Q 357.10 227.83 356.93 227.75
  Q 356.70 227.64 356.44 227.65
  L 319.12 228.12
  Q 318.79 227.20 317.50 226.79
  Q 316.78 226.56 316.74 226.25
  Q 316.69 225.82 317.21 225.14
  Z"
/>
<path fill="#9f5a21" d="
  M 313.12 228.12
  Q 313.84 227.94 314.46 228.15
  L 315.43 228.15
  Q 315.94 228.15 316.04 228.65
  Q 316.18 229.33 316.70 229.74
  Q 316.12 229.83 316.26 230.23
  L 313.12 228.12
  Z"
/>
<path fill="#e4c28e" d="
  M 316.70 229.74
  C 319.18 230.89 321.93 231.80 321.95 235.18
  Q 321.96 238.21 321.95 241.32
  Q 321.95 241.97 321.30 241.96
  L 317.43 241.93
  Q 316.79 241.92 316.81 241.28
  Q 316.93 236.78 316.95 232.01
  Q 316.96 230.90 316.26 230.23
  Q 316.12 229.83 316.70 229.74
  Z"
/>
<rect fill="#9f5a21" x="-1.47" y="-1.72" transform="translate(128.58,233.50) rotate(4.0)" width="2.94" height="3.44" rx="1.18"/>
<ellipse fill="#9f5a21" cx="0.00" cy="0.00" transform="translate(135.53,233.46) rotate(93.8)" rx="1.78" ry="1.36"/>
<path fill="#9f5a21" d="
  M 380.07 241.95
  A 0.64 0.64 0.0 0 1 379.41 241.33
  L 379.26 236.25
  A 4.20 2.16 88.3 0 1 381.29 231.99
  L 381.65 231.98
  A 4.20 2.16 88.3 0 1 383.94 236.11
  L 384.09 241.19
  A 0.64 0.64 0.0 0 1 383.47 241.85
  L 380.07 241.95
  Z"
/>
<path fill="#9f5a21" d="
  M 369.84 242.05
  A 0.96 0.96 0.0 0 1 368.87 241.11
  L 368.77 235.48
  A 3.07 2.08 89.0 0 1 370.80 232.38
  L 371.30 232.37
  A 3.07 2.08 89.0 0 1 373.43 235.40
  L 373.53 241.03
  A 0.96 0.96 0.0 0 1 372.58 242.01
  L 369.84 242.05
  Z"
/>
<path fill="#e4c28e" d="
  M 67.27 233.51
  Q 63.61 237.43 59.91 240.67
  Q 57.22 243.03 54.92 249.75
  L 48.42 249.89
  A 0.57 0.57 0.0 0 1 47.89 249.09
  Q 49.29 245.98 51.47 242.62
  C 54.80 237.52 61.40 234.75 67.27 233.51
  Z"
/>
<path fill="#9f5a21" d="
  M 331.73 241.46
  L 331.75 234.42
  Q 334.55 233.55 337.43 234.26
  Q 338.03 234.41 338.02 235.02
  L 337.87 241.00
  Q 337.85 241.68 337.18 241.78
  Q 334.50 242.20 331.73 241.46
  Z"
/>
<rect fill="#9f5a21" x="-1.06" y="-1.59" transform="translate(289.47,242.78) rotate(-0.8)" width="2.12" height="3.18" rx="0.69"/>
<ellipse fill="#ce9756" cx="0.00" cy="0.00" transform="translate(292.72,242.92) rotate(95.6)" rx="1.68" ry="0.67"/>
<ellipse fill="#9f5a21" cx="0.00" cy="0.00" transform="translate(296.08,243.02) rotate(94.8)" rx="1.81" ry="0.58"/>
<path fill="#382713" d="
  M 88.44 350.95
  A 0.44 0.43 -90.0 0 0 88.87 350.51
  L 88.77 326.98
  Q 88.77 326.45 88.23 326.45
  L 72.83 326.45
  Q 72.21 326.45 72.21 325.83
  L 72.20 306.81
  Q 72.20 306.07 72.94 306.07
  L 108.50 306.01
  A 0.74 0.74 0.0 0 1 109.24 306.75
  L 109.22 369.95
  A 0.32 0.31 0.0 0 1 108.90 370.26
  Q 86.98 370.14 66.33 370.52
  Q 64.53 370.55 62.72 370.20
  C 61.20 369.91 59.67 369.94 58.17 369.52
  Q 47.21 366.44 43.61 356.70
  Q 41.90 352.08 41.95 340.82
  C 42.02 322.38 42.34 303.73 42.07 285.08
  C 41.92 274.39 46.23 264.66 56.81 261.41
  Q 60.23 260.36 71.11 260.24
  Q 82.44 260.10 92.99 260.63
  C 103.61 261.16 110.12 270.30 110.63 280.53
  Q 110.66 281.11 110.08 281.11
  Q 89.44 281.02 69.02 281.05
  Q 63.51 281.06 63.49 286.38
  Q 63.37 315.41 63.49 343.73
  Q 63.51 351.00 70.46 350.99
  Q 79.48 350.98 88.44 350.95
  Z"
/>
<path fill="#382713" d="
  M 160.44 347.77
  L 142.26 347.75
  Q 141.74 347.75 141.63 348.26
  L 137.33 369.65
  Q 137.21 370.23 136.61 370.23
  L 119.03 370.24
  Q 118.58 370.24 118.68 369.81
  L 141.51 260.98
  A 0.54 0.54 0.0 0 1 142.04 260.55
  L 159.96 260.44
  Q 160.86 260.43 161.06 261.32
  Q 169.13 297.02 176.73 331.98
  Q 177.30 334.58 177.64 337.24
  Q 177.99 340.00 178.58 342.75
  Q 181.32 355.54 184.40 369.71
  Q 184.52 370.27 183.94 370.27
  L 166.01 370.17
  A 0.53 0.53 0.0 0 1 165.51 369.76
  L 161.10 348.31
  Q 160.99 347.77 160.44 347.77
  Z
  M 150.67 299.76
  Q 148.23 313.85 145.51 328.90
  Q 145.36 329.75 146.22 329.75
  L 156.22 329.73
  Q 157.46 329.72 157.28 328.50
  Q 154.75 311.26 151.56 296.13
  Q 151.30 294.93 151.17 296.15
  Q 150.96 298.09 150.67 299.76
  Z"
/>
<path fill="#382713" d="
  M 412.97 309.46
  L 412.99 369.62
  Q 412.99 370.24 412.38 370.24
  L 392.71 370.22
  Q 391.94 370.22 391.94 369.46
  L 391.96 261.16
  A 0.64 0.64 0.0 0 1 392.60 260.52
  L 410.67 260.40
  A 0.99 0.99 0.0 0 1 411.56 260.96
  Q 418.83 276.24 426.65 291.60
  C 427.56 293.38 427.85 295.49 428.83 297.33
  Q 433.74 306.57 437.74 314.58
  Q 438.29 315.69 438.29 314.45
  L 438.29 261.24
  A 0.74 0.73 89.6 0 1 439.01 260.50
  L 458.42 260.27
  A 0.73 0.73 0.0 0 1 459.16 261.00
  L 459.19 369.76
  A 0.48 0.47 0.0 0 1 458.71 370.23
  L 442.47 370.19
  Q 441.87 370.19 441.61 369.65
  Q 436.08 358.46 431.07 347.41
  Q 430.08 345.22 428.89 343.12
  C 427.68 340.97 427.23 338.61 426.17 336.34
  Q 419.66 322.43 413.18 309.41
  Q 412.97 308.98 412.97 309.46
  Z"
/>
<path fill="#382713" d="
  M 216.32 351.37
  L 238.47 351.23
  A 0.72 0.70 -13.9 0 1 239.10 351.60
  Q 242.87 358.49 248.35 365.55
  Q 249.80 367.40 250.90 369.51
  Q 251.27 370.22 250.47 370.22
  L 195.04 370.22
  Q 194.35 370.22 194.35 369.54
  L 194.31 261.09
  A 0.60 0.60 0.0 0 1 194.91 260.49
  L 215.45 260.43
  A 0.52 0.52 0.0 0 1 215.97 260.95
  L 215.98 351.03
  Q 215.98 351.37 216.32 351.37
  Z"
/>
<path fill="#382713" d="
  M 250.81 293.06
  C 247.50 277.95 253.11 261.32 270.67 260.61
  Q 279.24 260.27 290.00 260.48
  C 295.17 260.58 299.71 261.27 303.76 264.85
  Q 310.71 270.99 312.50 280.44
  Q 312.61 281.05 311.99 281.05
  Q 294.48 281.03 276.19 281.08
  C 268.74 281.10 271.74 290.09 274.44 293.55
  Q 277.88 297.95 281.51 301.89
  Q 290.68 311.87 299.31 321.18
  C 300.15 322.09 301.22 322.76 301.88 323.77
  Q 303.67 326.54 305.78 329.46
  Q 312.08 338.19 311.23 349.24
  C 310.82 354.58 308.65 361.35 304.32 364.63
  Q 303.17 365.50 302.01 366.45
  Q 298.76 369.13 294.00 369.93
  Q 280.79 372.16 268.60 369.91
  C 265.36 369.31 262.36 367.98 259.66 366.01
  Q 252.42 360.70 248.61 352.05
  Q 248.43 351.63 248.89 351.62
  Q 265.09 351.34 280.75 351.39
  C 284.11 351.40 287.67 351.93 288.66 347.59
  Q 289.62 343.39 286.40 339.34
  C 281.36 333.01 276.22 327.22 270.43 321.57
  Q 263.94 315.22 257.54 306.21
  Q 251.97 298.37 250.81 293.06
  Z"
/>
<path fill="#382713" d="
  M 343.18 326.64
  L 343.19 350.88
  A 0.41 0.41 0.0 0 0 343.60 351.29
  L 380.72 351.35
  A 0.41 0.41 0.0 0 1 381.13 351.76
  L 381.03 369.83
  A 0.41 0.41 0.0 0 1 380.62 370.24
  L 322.42 370.23
  A 0.41 0.41 0.0 0 1 322.01 369.82
  L 322.07 260.91
  A 0.41 0.41 0.0 0 1 322.48 260.50
  L 380.70 260.46
  A 0.41 0.41 0.0 0 1 381.11 260.87
  L 381.05 280.67
  A 0.41 0.41 0.0 0 1 380.64 281.08
  L 343.61 281.07
  A 0.41 0.41 0.0 0 0 343.20 281.48
  L 343.17 305.64
  A 0.41 0.41 0.0 0 0 343.58 306.05
  L 371.71 306.00
  A 0.41 0.41 0.0 0 1 372.12 306.41
  L 372.04 325.84
  A 0.41 0.41 0.0 0 1 371.63 326.25
  L 343.59 326.23
  A 0.41 0.41 0.0 0 0 343.18 326.64
  Z"
/>
<path fill="#382713" d="
  M 129.81 394.97
  L 120.43 394.88
  A 0.35 0.35 0.0 0 1 120.09 394.54
  L 120.00 386.31
  A 0.35 0.35 0.0 0 1 120.35 385.96
  L 150.72 385.85
  A 0.35 0.35 0.0 0 1 151.07 386.20
  L 151.02 394.51
  A 0.35 0.35 0.0 0 1 150.68 394.85
  L 141.41 394.97
  A 0.35 0.35 0.0 0 0 141.06 395.32
  L 141.03 416.76
  A 0.35 0.35 0.0 0 1 140.68 417.11
  L 130.42 417.00
  A 0.35 0.35 0.0 0 1 130.07 416.65
  L 130.16 395.32
  A 0.35 0.35 0.0 0 0 129.81 394.97
  Z"
/>
<path fill="#382713" d="
  M 229.27 411.74
  L 227.71 416.08
  Q 227.37 417.04 226.34 417.04
  L 217.95 417.06
  Q 216.47 417.07 217.13 415.74
  C 218.23 413.53 218.64 410.71 219.55 408.49
  Q 224.02 397.54 228.27 386.46
  Q 228.46 385.96 229.00 385.95
  L 240.01 385.80
  Q 240.61 385.79 240.84 386.35
  L 252.85 416.48
  A 0.38 0.38 0.0 0 1 252.50 417.00
  L 242.06 417.01
  A 0.73 0.72 80.3 0 1 241.38 416.52
  L 239.67 411.49
  Q 239.50 410.99 238.97 411.00
  L 230.27 411.03
  Q 229.52 411.04 229.27 411.74
  Z
  M 232.20 403.51
  A 0.39 0.39 0.0 0 0 232.57 404.03
  L 237.04 403.99
  A 0.39 0.39 0.0 0 0 237.40 403.46
  L 235.10 397.49
  A 0.39 0.39 0.0 0 0 234.37 397.49
  L 232.20 403.51
  Z"
/>
<path fill="#382713" d="
  M 280.21 402.27
  L 285.71 386.37
  A 0.53 0.53 0.0 0 1 286.20 386.01
  L 296.65 385.85
  A 0.53 0.53 0.0 0 1 297.15 386.59
  L 284.58 416.70
  A 0.53 0.53 0.0 0 1 284.08 417.03
  L 274.66 416.97
  A 0.53 0.53 0.0 0 1 274.18 416.64
  L 261.92 386.71
  A 0.53 0.53 0.0 0 1 262.41 385.98
  L 273.04 385.81
  A 0.53 0.53 0.0 0 1 273.55 386.16
  L 279.21 402.28
  A 0.53 0.53 0.0 0 0 280.21 402.27
  Z"
/>
<path fill="#382713" d="
  M 321.82 406.23
  L 322.07 408.14
  A 0.38 0.38 0.0 0 0 322.45 408.48
  L 335.50 408.30
  A 0.38 0.38 0.0 0 1 335.89 408.68
  L 335.88 416.64
  A 0.38 0.38 0.0 0 1 335.50 417.02
  L 311.37 417.09
  A 0.38 0.38 0.0 0 1 310.99 416.71
  L 310.94 386.36
  A 0.38 0.38 0.0 0 1 311.32 385.98
  L 335.15 385.73
  A 0.38 0.38 0.0 0 1 335.54 386.12
  L 335.49 394.31
  A 0.38 0.38 0.0 0 1 335.11 394.69
  L 322.26 394.74
  A 0.38 0.38 0.0 0 0 321.88 395.12
  L 321.88 397.43
  A 0.38 0.38 0.0 0 0 322.26 397.81
  L 334.38 397.67
  A 0.38 0.38 0.0 0 1 334.76 398.05
  L 334.82 405.41
  A 0.38 0.38 0.0 0 1 334.44 405.79
  L 322.20 405.80
  A 0.38 0.38 0.0 0 0 321.82 406.23
  Z"
/>
<path fill="#382713" d="
  M 365.06 407.99
  L 378.19 407.94
  A 0.48 0.48 0.0 0 1 378.68 408.43
  L 378.61 416.57
  A 0.48 0.48 0.0 0 1 378.13 417.05
  L 353.97 417.03
  A 0.48 0.48 0.0 0 1 353.49 416.55
  L 353.53 386.43
  A 0.48 0.48 0.0 0 1 354.00 385.95
  L 364.11 385.82
  A 0.48 0.48 0.0 0 1 364.60 386.30
  L 364.58 407.51
  A 0.48 0.48 0.0 0 0 365.06 407.99
  Z"
/>
<path fill="#382713" d="
  M 192.08 407.18
  L 197.70 415.78
  Q 198.49 416.99 197.04 416.99
  L 188.36 417.00
  Q 186.85 417.00 186.10 415.68
  Q 184.89 413.54 183.57 411.34
  Q 181.72 408.25 178.96 409.32
  Q 178.50 409.50 178.51 409.99
  L 178.56 416.49
  Q 178.57 417.04 178.01 417.04
  L 168.50 417.03
  Q 167.97 417.03 167.97 416.50
  L 168.00 386.46
  Q 168.00 385.95 168.50 385.96
  Q 174.69 386.01 181.51 385.86
  Q 187.81 385.73 191.23 387.95
  C 197.44 392.00 198.65 401.81 192.26 406.24
  Q 191.71 406.62 192.08 407.18
  Z
  M 178.58 395.26
  L 178.60 400.68
  A 0.70 0.70 0.0 0 0 179.30 401.38
  L 182.19 401.37
  A 3.49 3.16 -0.2 0 0 185.67 398.20
  L 185.67 397.70
  A 3.49 3.16 -0.2 0 0 182.17 394.55
  L 179.28 394.56
  A 0.70 0.70 0.0 0 0 178.58 395.26
  Z"
/>
<rect fill="#9f5a21" x="42.19" y="397.20" width="68.64" height="8.84" rx="0.51"/>
<rect fill="#9f5a21" x="388.02" y="397.20" width="71.68" height="8.84" rx="0.63"/>
</svg>
